# xmcd
#
# Track frame offsets:
#	182
#	12080
#	26930
#	42267
#	66892
#	82947
#	105515
#	124167
#	152317
#	166917
#	187505
#	206355
#	228887
#
# Disc length: 3279 seconds
#
# Revision: 1
# Processed by: cddbd v1.5.1PL0 Copyright (c) Steve Scherf et al.
# Submitted via: CDex 1.50Beta5
#
DISCID=8d0ccd0d
DTITLE=Various Artist - 愛情
DYEAR=1900
DGENRE=Classical
TTITLE0=ア"ィクトリア・デ・ロス・アンヘレス(ソプラノ)/愛の翼に 作品34-2
TTITLE1=ア"ィクトリア・デ・ロス・アンヘレス(ソプラノ)/レクレイム作品48-ああ、イエズスよ
TTITLE2=ヨーク・フィルハーモニック/組曲「動物の謝肉祭」白鳥
TTITLE3=イングット・ペプラー(ピアノ)/即興曲作品作品90D.899-第3楽章
TTITLE4=ハンス・ビシュナー(チェンバロ)/平均律クラヴィーア曲第1集第9曲ホ長調BWV854
TTITLE5=モーリス・ジャルドロン(チェロ)ピーター・ガリオン(ピアノ)/オンブラ・マイ・フ
TTITLE6=アルトゥール・ルービンシュタイン(ピアノ)/幻想小組曲作品12-夕べに
TTITLE7=グリーヴランド管弦楽団/劇付随音楽「真夏の夜の夢」-夜想曲
TTITLE8=モーリス・ジャルドロン(チェロ)ピーター・ガリオン(ピアノ)/トロイメライ
TTITLE9=サンソン・フランソワ(ピアノ)/雨だれのプレリュード
TTITLE10=アダム・ハラシェヴィッチ(ピアノ)/別れの曲 ホ長調作品10-3
TTITLE11=ロイヤル・フィルハーモニー管弦楽団/イルメリン-前奏曲
TTITLE12=フィラデルフィア管弦楽団/愛の喜び
EXTD=
EXTT0=
EXTT1=
EXTT2=
EXTT3=
EXTT4=
EXTT5=
EXTT6=
EXTT7=
EXTT8=
EXTT9=
EXTT10=
EXTT11=
EXTT12=
PLAYORDER=
